<svg width="32" height="32" viewBox="0 0 32 32" fill="none" xmlns="http://www.w3.org/2000/svg">
<path d="M26.6641 6.66699H23.2161L19.6067 3.05766C19.4831 2.9336 19.3362 2.83522 19.1744 2.76817C19.0126 2.70113 18.8392 2.66674 18.6641 2.66699H13.3307C13.1556 2.66674 12.9822 2.70113 12.8204 2.76817C12.6586 2.83522 12.5117 2.9336 12.3881 3.05766L8.77873 6.66699H5.33073C3.86006 6.66699 2.66406 7.86299 2.66406 9.33366V24.0003C2.66406 25.471 3.86006 26.667 5.33073 26.667H26.6641C28.1347 26.667 29.3307 25.471 29.3307 24.0003V9.33366C29.3307 7.86299 28.1347 6.66699 26.6641 6.66699ZM15.9974 22.667C12.3841 22.667 9.33073 19.6137 9.33073 16.0003C9.33073 12.3857 12.3841 9.33366 15.9974 9.33366C19.6107 9.33366 22.6641 12.3857 22.6641 16.0003C22.6641 19.6137 19.6107 22.667 15.9974 22.667Z" fill="#2B2B2B"/>
<path d="M17.3333 12H14.6667V14.6667H12V17.3333H14.6667V20H17.3333V17.3333H20V14.6667H17.3333V12Z" fill="#2B2B2B"/>
</svg>
