<svg width="31" height="22" viewBox="0 0 31 22" fill="none" xmlns="http://www.w3.org/2000/svg">
<path d="M28.5 0.5H2.5C1.1215 0.5 0 1.6215 0 3V19C0 20.3785 1.1215 21.5 2.5 21.5H28.5C29.8785 21.5 31 20.3785 31 19V3C31 1.6215 29.8785 0.5 28.5 0.5ZM15 14.46C13.3065 14.216 12 12.7595 12 11C12 9.2405 13.3065 7.784 15 7.54V14.46ZM16 7.54C17.6935 7.784 19 9.2405 19 11C19 12.7595 17.6935 14.216 16 14.46V7.54ZM1 6.5H4.5C4.7755 6.5 5 6.724 5 7V15C5 15.276 4.7755 15.5 4.5 15.5H1V6.5ZM1 19V16.5H4.5C5.327 16.5 6 15.827 6 15V14.46C7.6935 14.216 9 12.7595 9 11C9 9.2405 7.6935 7.784 6 7.54V7C6 6.173 5.327 5.5 4.5 5.5H1V3C1 2.173 1.673 1.5 2.5 1.5H15V6.5295C12.7535 6.779 11 8.6875 11 11C11 13.3125 12.7535 15.221 15 15.4705V20.5H2.5C1.673 20.5 1 19.827 1 19ZM6 8.5505C7.1395 8.783 8 9.7925 8 11C8 12.2075 7.1395 13.217 6 13.4495V8.5505ZM28.5 20.5H16V15.4705C18.2465 15.221 20 13.3125 20 11C20 8.6875 18.2465 6.779 16 6.5295V1.5H28.5C29.327 1.5 30 2.173 30 3V5.5H26.5C25.673 5.5 25 6.173 25 7V7.54C23.3065 7.784 22 9.2405 22 11C22 12.7595 23.3065 14.216 25 14.46V15C25 15.827 25.673 16.5 26.5 16.5H30V19C30 19.827 29.327 20.5 28.5 20.5ZM30 6.5V15.5H26.5C26.2245 15.5 26 15.276 26 15V7C26 6.724 26.2245 6.5 26.5 6.5H30ZM25 13.4495C23.8605 13.217 23 12.2075 23 11C23 9.7925 23.8605 8.783 25 8.5505V13.4495Z" fill="white"/>
</svg>
