<svg width="24" height="25" viewBox="0 0 24 25" fill="none" xmlns="http://www.w3.org/2000/svg">
<path d="M15.64 11.0759C16.19 9.60595 17.07 8.29595 18.2 7.24595C18.58 6.88595 18.24 6.24595 17.74 6.39595C14.42 7.37595 11.99 10.4459 12 14.0859C12.95 12.8059 14.2 11.7759 15.64 11.0759ZM11.42 8.90595C10.82 7.34595 9.79 5.99595 8.46 5.03595C8.04 4.73595 7.5 5.22595 7.74 5.68595C8.54 7.20595 9 8.93595 9 10.7659C9 10.9759 8.97 11.1759 8.96 11.3759C9.39 11.6159 9.79 11.8959 10.18 12.1959C10.39 11.0159 10.83 9.90595 11.42 8.90595ZM12 20.0559H3C2.45 20.0559 2 19.6059 2 19.0559C2 18.5059 2.45 18.0559 3 18.0559H7.75C7.18 15.8659 5.71 14.0359 3.75 12.9959C3.59 12.9159 3.49 12.7459 3.49 12.5559C3.49 12.2859 3.71 12.0659 3.98 12.0559C3.99 12.0559 4 12.0559 4 12.0559C8.42 12.0559 12 15.6359 12 20.0559ZM20.26 12.9959C18.3 14.0359 16.82 15.8659 16.26 18.0559H21C21.55 18.0559 22 18.5059 22 19.0559C22 19.6059 21.55 20.0559 21 20.0559H14C14 19.3759 13.93 18.7059 13.8 18.0559C13.65 17.3359 13.42 16.6359 13.13 15.9859C14.52 13.6359 17.07 12.0559 20 12.0559C20.01 12.0559 20.02 12.0559 20.02 12.0559C20.29 12.0559 20.51 12.2859 20.51 12.5559C20.52 12.7459 20.41 12.9059 20.26 12.9959Z" fill="#222222"/>
</svg>
