<svg width="8" height="308" viewBox="0 0 8 308" fill="none" xmlns="http://www.w3.org/2000/svg">
<path d="M4 0C1.79086 0 0 1.79086 0 4C0 6.20914 1.79086 8 4 8C6.20914 8 8 6.20914 8 4C8 1.79086 6.20914 0 4 0ZM4 50C1.79086 50 0 51.7909 0 54C0 56.2091 1.79086 58 4 58C6.20914 58 8 56.2091 8 54C8 51.7909 6.20914 50 4 50ZM3.25 4L3.25 54H4.75L4.75 4H3.25Z" fill="#222222"/>
<path d="M4 50C1.79086 50 0 51.7909 0 54C0 56.2091 1.79086 58 4 58C6.20914 58 8 56.2091 8 54C8 51.7909 6.20914 50 4 50ZM4 100C1.79086 100 0 101.791 0 104C0 106.209 1.79086 108 4 108C6.20914 108 8 106.209 8 104C8 101.791 6.20914 100 4 100ZM3.25 54L3.25 104H4.75L4.75 54H3.25Z" fill="#222222"/>
<path d="M4 100C1.79086 100 0 101.791 0 104C0 106.209 1.79086 108 4 108C6.20914 108 8 106.209 8 104C8 101.791 6.20914 100 4 100ZM4 150C1.79086 150 0 151.791 0 154C0 156.209 1.79086 158 4 158C6.20914 158 8 156.209 8 154C8 151.791 6.20914 150 4 150ZM3.25 104L3.25 154H4.75L4.75 104H3.25Z" fill="#222222"/>
<path d="M4 150C1.79086 150 0 151.791 0 154C0 156.209 1.79086 158 4 158C6.20914 158 8 156.209 8 154C8 151.791 6.20914 150 4 150ZM4 200C1.79086 200 0 201.791 0 204C0 206.209 1.79086 208 4 208C6.20914 208 8 206.209 8 204C8 201.791 6.20914 200 4 200ZM3.25 154L3.25 204H4.75L4.75 154H3.25Z" fill="#222222"/>
<path d="M4 200C1.79086 200 0 201.791 0 204C0 206.209 1.79086 208 4 208C6.20914 208 8 206.209 8 204C8 201.791 6.20914 200 4 200ZM4 250C1.79086 250 0 251.791 0 254C0 256.209 1.79086 258 4 258C6.20914 258 8 256.209 8 254C8 251.791 6.20914 250 4 250ZM3.25 204L3.25 254H4.75L4.75 204H3.25Z" fill="#222222"/>
<path d="M4 250C1.79086 250 0 251.791 0 254C0 256.209 1.79086 258 4 258C6.20914 258 8 256.209 8 254C8 251.791 6.20914 250 4 250ZM4 300C1.79086 300 0 301.791 0 304C0 306.209 1.79086 308 4 308C6.20914 308 8 306.209 8 304C8 301.791 6.20914 300 4 300ZM3.25 254L3.25 304H4.75L4.75 254H3.25Z" fill="#222222"/>
</svg>
