<svg width="40" height="40" viewBox="0 0 40 40" fill="none" xmlns="http://www.w3.org/2000/svg">
<rect width="40" height="40" rx="20" fill="#F0F0F0"/>
<path fillRule="evenodd" clipRule="evenodd" d="M20.1042 11C17.1999 11 14.9546 13.196 14.9546 15.7744V18.2188C14.9546 18.5405 14.8224 18.8248 14.7535 18.9646C14.664 19.1463 14.5469 19.339 14.422 19.5279C14.1704 19.9084 13.8337 20.3536 13.475 20.8035C13.0147 21.3809 12.9167 22.0494 13.0633 22.5627C13.2026 23.0504 13.5644 23.432 14.1817 23.5344C15.7383 23.7925 17.7284 24 20.1042 24C22.6552 24 24.605 23.7608 26.0149 23.4803C26.5158 23.3806 26.8053 23.078 26.9305 22.6866C27.0643 22.2684 27.0173 21.7009 26.6806 21.1607C26.5188 20.9011 26.3449 20.6358 26.1697 20.3698C26.1518 20.3426 26.1339 20.3154 26.1159 20.2881C25.9608 20.0528 25.8046 19.8158 25.6655 19.5955C25.512 19.3526 25.3628 19.1043 25.2494 18.8776C25.1608 18.7004 25.0001 18.3623 25.0001 18V15.7119C25.0001 13.0932 22.9666 11 20.1042 11ZM12.9546 15.7744C12.9546 11.9747 16.2158 9 20.1042 9C24.0345 9 27.0001 11.9524 27.0001 15.7119V17.9017C27.0085 17.9212 27.0208 17.9481 27.0383 17.9833C27.106 18.1185 27.2121 18.2991 27.3564 18.5274C27.4844 18.7302 27.6295 18.9503 27.7866 19.1887C27.8043 19.2155 27.822 19.2424 27.8399 19.2696C28.0149 19.5353 28.2014 19.8195 28.378 20.1029C28.9971 21.0963 29.1636 22.2698 28.8354 23.2959C28.4986 24.3489 27.6506 25.1941 26.4052 25.4418C24.8617 25.7489 22.781 26 20.1042 26C17.6116 26 15.512 25.7823 13.8545 25.5074C12.433 25.2717 11.4799 24.3011 11.1403 23.1121C10.8079 21.9487 11.0667 20.6159 11.9112 19.5567C12.2564 19.1238 12.5504 18.7323 12.7536 18.4249C12.8518 18.2764 12.9168 18.1655 12.9546 18.0904V15.7744ZM12.9839 18.0249C12.9841 18.0248 12.9828 18.0291 12.9789 18.0385C12.9816 18.0297 12.9836 18.0251 12.9839 18.0249ZM23.7854 27.3808C24.1273 27.8145 24.053 28.4433 23.6193 28.7852C21.5782 30.3948 18.4433 30.4152 16.3801 28.7846C15.9468 28.4421 15.8731 27.8132 16.2156 27.3799C16.558 26.9466 17.1869 26.873 17.6202 27.2154C18.9509 28.2671 21.0603 28.2561 22.3809 27.2148C22.8146 26.8728 23.4434 26.9471 23.7854 27.3808Z" fill="black" fillOpacity="0.9"/>
</svg>
