<svg width="20" height="20" viewBox="0 0 20 20" fill="none" xmlns="http://www.w3.org/2000/svg">
<g clip-path="url(#clip0_334_17163)">
<path d="M19.5626 10.2055C19.5691 9.98269 19.6279 6.79801 17.7432 4.72488C17.6594 4.53957 17.2622 3.7927 15.9804 2.87988C15.4121 2.43907 14.8085 2.04577 14.1757 1.70395L14.1732 1.7027C14.0932 1.65988 12.5301 0.833008 10.6329 0.833008C10.4888 0.833008 10.3463 0.841445 10.2054 0.851133V0.848633C8.7588 0.81707 7.32193 1.18926 6.45599 1.5802C5.68786 1.92707 4.83505 2.50863 4.77349 2.55363C3.70974 3.14863 1.69255 5.53645 1.53286 6.80176C0.888175 7.62582 0.349425 11.3274 1.53411 13.5821C2.36474 16.7155 5.49161 18.2836 5.74036 18.4039C5.89161 18.5005 7.59568 19.5539 9.68911 19.5539C9.77693 19.5539 10.3079 19.5833 10.4972 19.5833C12.7601 19.5833 16.1132 17.9883 16.8151 16.7389C18.7435 15.3283 19.7432 11.693 19.5626 10.2055ZM5.75755 14.9127C4.86099 13.4624 4.35005 11.5674 4.24068 11.1321C4.52443 10.7068 5.92411 8.64301 6.72161 8.02207C7.17318 8.10519 9.0588 8.45144 10.8372 8.77332C11.0607 9.35238 12.041 11.9074 12.3216 12.8936C12.0122 13.2605 10.7969 14.6755 9.60036 15.7836C8.33005 15.7896 6.16943 15.0568 5.75755 14.9127ZM17.0282 4.76426C17.0244 4.90488 16.991 5.40488 16.7516 5.97894C16.2763 5.73613 15.0816 5.21613 13.4441 5.12832C13.1963 4.76238 12.2638 3.48644 10.791 2.60145C10.9926 2.20707 11.2732 1.72613 11.4372 1.57957C11.4904 1.56457 11.5729 1.55082 11.6985 1.55082C12.4882 1.55082 13.8526 2.06801 13.9713 2.11395C14.0972 2.18051 16.5497 3.50113 17.0282 4.76426ZM3.88724 10.8368C2.81755 10.6543 2.18161 10.3218 1.99161 10.2093C1.5938 8.76645 1.91411 7.20707 1.96349 6.98363C2.35599 6.28176 3.47349 4.49269 4.21068 4.15301C4.97474 3.99707 5.92755 4.19082 6.31568 4.28551C6.27911 4.79019 6.2088 6.20019 6.41755 7.67988C5.57193 8.36051 4.23349 10.3196 3.88724 10.8368ZM10.1097 1.31113C10.3497 1.32895 10.7019 1.38145 10.9432 1.45301C10.7026 1.77301 10.456 2.24738 10.3394 2.48176C9.8488 2.56207 7.98536 2.91832 6.52349 3.86613C6.2288 3.78801 5.3388 3.57957 4.49599 3.65145C4.70474 3.24738 5.01661 2.94863 5.05005 2.91801C5.16599 2.83488 7.39786 1.27332 10.1097 1.30707V1.31113ZM16.0772 13.2152C15.7116 13.2002 14.3029 13.1199 12.7582 12.7571C12.4622 11.7252 11.4851 9.18082 11.2616 8.60207C11.9725 7.58877 12.6942 6.58309 13.4266 5.5852C15.2041 5.68269 16.4522 6.33113 16.6938 6.46644C17.7235 8.12238 17.9494 9.81363 17.9804 10.0961C17.4335 11.798 16.3519 12.9439 16.0772 13.2152ZM1.35036 9.12019C1.37661 9.51582 1.44005 9.93238 1.55474 10.3443C1.45163 10.6111 1.3801 10.8892 1.34161 11.1727C1.27635 10.4899 1.27928 9.80237 1.35036 9.12019ZM4.36411 16.4199C4.83536 15.9658 5.4163 15.5239 5.64161 15.3571C6.15099 15.5364 8.24286 16.2436 9.5763 16.2436C9.80349 16.5483 10.5463 17.5024 11.4569 18.2318C10.89 18.7864 10.0713 19.0483 9.92661 19.0918C7.38693 19.1599 4.91349 17.7324 4.36411 16.4199ZM11.0713 19.088C11.3594 18.9202 11.6597 18.6993 11.9082 18.4196C12.3135 18.3636 14.0529 18.0643 15.6247 16.9096C15.7285 16.9208 15.8994 16.9346 16.0904 16.9293C15.1472 17.8533 12.846 18.8855 11.0713 19.088ZM15.8913 16.4705C16.456 14.9993 16.4319 13.8899 16.4041 13.5355C16.7141 13.2318 17.7779 12.0983 18.3682 10.3752C18.6863 10.4283 18.8932 10.5093 18.9913 10.5546C19.0254 10.6796 19.0822 10.9683 19.0501 11.4061C18.8094 12.9821 17.9788 15.3436 16.5238 16.3877C16.3776 16.4624 16.1201 16.4786 15.8913 16.4705Z" fill="#222222"/>
</g>
<defs>
<clipPath id="clip0_334_17163">
<rect width="20" height="20" fill="white"/>
</clipPath>
</defs>
</svg>
