<svg width="120" height="98" viewBox="0 0 120 98" fill="none" xmlns="http://www.w3.org/2000/svg">
<path fill-rule="evenodd" clip-rule="evenodd" d="M25.0303 -8.27213L13.3826 0.176517L13.3229 12.4958L13.2641 24.8152L7.01373 33.1628C3.57588 37.7536 0.445632 42.0376 0.0581397 42.6815C-0.343126 43.3484 1.37029 49.9067 4.03591 57.9061L8.71796 71.9597L13.5166 73.4376C16.1556 74.2505 21.2454 75.7899 24.8283 76.8591L31.3431 78.8027L37.959 88.4014L44.5748 98L59.9092 97.966L75.2446 97.9311L81.6722 88.3325L88.0998 78.7338L97.2821 75.9176C102.332 74.368 107.435 72.7992 108.62 72.4318C110.463 71.8595 111.447 69.6734 115.389 57.4L120 43.0379L113.002 33.9059L106.005 24.7748L105.963 12.4756L105.921 0.176517L93.8957 -8.41174L81.8715 -17L70.5864 -13.156L59.3014 -9.31098L48.6187 -13.0641C42.7429 -15.128 37.6532 -16.7942 37.307 -16.7685C36.9618 -16.7419 31.4368 -12.9181 25.0303 -8.27213ZM46.2028 -8.45491C49.9263 -7.25807 53.1694 -5.76454 53.41 -5.13718C53.6506 -4.50891 53.0207 -1.54389 52.0088 1.45144L50.1696 6.89924L52.3981 10.1793L54.6267 13.4603L51.2843 18.4957C48.3469 22.9212 47.3534 23.7019 43.0873 24.9429C36.6817 26.8056 36.5991 26.7937 34.2383 23.599C32.2981 20.9739 31.883 20.8435 25.4876 20.8435H18.7735L18.7652 16.9397C18.7616 14.7931 18.5063 10.9463 18.1996 8.39277L17.6413 3.74868L27.6197 -3.70152C33.107 -7.8 38.0104 -11.0351 38.5154 -10.8918C39.0204 -10.7485 42.4794 -9.65176 46.2028 -8.45491ZM91.3742 -3.77684L100.496 2.84393V11.2522V19.6613L93.8387 20.2639C87.8702 20.804 86.9392 21.1594 84.8401 23.6955C82.3434 26.7129 82.2736 26.7138 72.7296 23.9453C71.8517 23.69 69.6452 21.2393 67.8271 18.4994L64.5215 13.5173L66.5407 10.2491C68.6563 6.82484 68.6315 6.39956 65.7721 -2.72145L64.8631 -5.61941L72.3494 -8.40531C76.4668 -9.93742 80.3793 -11.0121 81.0441 -10.7944C81.7089 -10.5758 86.357 -7.41881 91.3742 -3.77684ZM61.4197 8.65731L59.7375 11.7831L58.0994 9.65392C56.0637 7.00763 56.0444 5.8907 57.9268 -0.345207L59.4318 -5.33466L61.2673 0.098444C63.0569 5.39561 63.0606 5.61054 61.4197 8.65731ZM73.8608 29.6209C82.7787 31.9815 82.6602 31.6977 77.4162 38.1807L72.7268 43.9785L73.3714 51.3671C73.8911 57.3275 73.7791 58.6704 72.7938 58.3121C72.1217 58.0669 68.8684 56.9077 65.5637 55.7357L59.5566 53.6047L53.1483 56.0535C49.6242 57.401 46.4526 58.5032 46.1 58.5032C45.7474 58.5032 45.7088 55.2681 46.0137 51.3129L46.5683 44.1236L41.8477 38.2634C36.5578 31.6968 36.4329 31.9972 45.4793 29.6016C51.4827 28.0126 51.5515 27.9575 55.4751 21.5976L59.4253 15.1927L63.6565 21.6169C67.8079 27.9207 67.997 28.0695 73.8608 29.6209ZM30.6462 27.6645C33.0593 30.2336 32.6654 31.4534 29.2082 32.1147C27.4012 32.4601 25.5969 31.7455 22.3078 29.3821C19.8588 27.6222 17.8553 26.0148 17.8553 25.809C17.8553 25.6042 20.2629 25.4361 23.2049 25.4361C27.6794 25.4361 28.896 25.7998 30.6462 27.6645ZM101.24 25.9165C100.976 26.181 98.8073 27.7848 96.4217 29.4822C92.5091 32.2645 91.7837 32.4748 89.0144 31.6242L85.9447 30.6828L87.884 28.0594C89.6691 25.6437 90.2935 25.4361 95.7716 25.4361C99.0433 25.4361 101.504 25.652 101.24 25.9165ZM21.7146 35.3176C25.7171 38.1798 26.2883 38.335 29.5195 37.4376C31.4368 36.9049 33.231 36.4667 33.5065 36.464C33.781 36.4612 35.5367 38.4673 37.409 40.9216C40.5273 45.0118 40.811 45.8835 40.811 51.3598V57.3348L36.8084 58.8642C32.9739 60.3292 32.737 60.6443 31.1971 66.3373C30.2367 69.8847 29.0935 72.2811 28.3607 72.2811C27.6849 72.2811 23.855 71.245 19.8487 69.9793L12.5644 67.6775L8.82172 56.002L5.0781 44.3266L10.132 37.6094C13.3743 33.2996 15.5817 31.1319 16.2915 31.5609C16.8985 31.9292 19.3391 33.6193 21.7146 35.3176ZM107.944 35.7696C114.84 44.4809 114.643 42.9185 110.477 55.9111L106.754 67.525L98.9395 69.9619C94.6422 71.3029 90.8582 72.1369 90.5313 71.8164C90.2035 71.4958 89.0841 68.7081 88.0429 65.6218C86.3001 60.4551 85.8456 59.8994 82.3039 58.6079L78.4584 57.2053V51.2946C78.4584 45.8936 78.7513 45.0008 81.8604 40.9216C85.5425 36.0929 85.694 36.0286 90.2732 37.3421C93.0821 38.1476 93.7662 37.907 98.0718 34.6012C100.668 32.608 103.092 30.9702 103.459 30.962C103.825 30.9537 105.844 33.1169 107.944 35.7696ZM65.9806 61.3865C71.0813 63.3383 71.1126 63.3742 71.1126 67.1962C71.1126 70.8041 71.4229 71.2634 76.1426 74.6464C78.9102 76.6295 81.1828 78.597 81.1929 79.0204C81.2039 79.4429 79.0956 82.8525 76.5072 86.5983L71.8012 93.4073H59.7082H47.6151L42.8357 86.5303C40.2068 82.7487 38.0563 79.4549 38.0563 79.2124C38.0563 78.969 40.3289 77.0538 43.1066 74.9559C47.6812 71.5004 48.1568 70.8115 48.1568 67.6325C48.1568 63.8481 48.5507 63.4192 54.1244 61.1247C59.0727 59.0874 60.0314 59.1085 65.9806 61.3865ZM43.5657 65.1965C43.5657 67.7473 42.8577 68.7439 38.9984 71.6262C36.4861 73.5019 34.2411 75.0367 34.0087 75.0367C33.7755 75.0367 34.4146 72.5815 35.4274 69.5798C36.8617 65.3325 37.8148 63.9244 39.7293 63.2226C43.4279 61.8687 43.5657 61.9394 43.5657 65.1965ZM79.6705 63.0334C81.3407 63.6681 82.4068 65.3297 83.8089 69.4842C85.863 75.5676 85.7197 75.609 79.6062 70.6994C76.6146 68.2966 75.7037 66.9371 75.7037 64.8714C75.7037 61.9605 76.2207 61.7208 79.6705 63.0334Z" fill="#404040"/>
</svg>
