<svg width="28" height="28" viewBox="0 0 28 28" fill="none" xmlns="http://www.w3.org/2000/svg">
<path d="M13.9974 0.666992C6.6374 0.666992 0.664062 6.64033 0.664062 14.0003C0.664062 21.3603 6.6374 27.3337 13.9974 27.3337C21.3574 27.3337 27.3307 21.3603 27.3307 14.0003C27.3307 6.64033 21.3574 0.666992 13.9974 0.666992ZM13.9974 24.667C8.10406 24.667 3.33073 19.8937 3.33073 14.0003C3.33073 8.10699 8.10406 3.33366 13.9974 3.33366C19.8907 3.33366 24.6641 8.10699 24.6641 14.0003C24.6641 19.8937 19.8907 24.667 13.9974 24.667Z" fill="#222222"/>
<path d="M13.9974 20.667C17.6793 20.667 20.6641 17.6822 20.6641 14.0003C20.6641 10.3184 17.6793 7.33366 13.9974 7.33366C10.3155 7.33366 7.33073 10.3184 7.33073 14.0003C7.33073 17.6822 10.3155 20.667 13.9974 20.667Z" fill="#222222"/>
</svg>
