<svg width="20" height="20" viewBox="0 0 20 20" fill="none" xmlns="http://www.w3.org/2000/svg">
<path d="M16.5833 11.25H3.41666C2.16666 11.25 1.66666 11.7833 1.66666 13.1083V16.475C1.66666 17.8 2.16666 18.3333 3.41666 18.3333H16.5833C17.8333 18.3333 18.3333 17.8 18.3333 16.475V13.1083C18.3333 11.7833 17.8333 11.25 16.5833 11.25Z" stroke="#1C1C1C" strokeWidth="1.5" strokeLinecap="round" strokeLinejoin="round"/>
<path d="M16.5833 1.66663H3.41666C2.16666 1.66663 1.66666 2.19996 1.66666 3.52496V6.89163C1.66666 8.21663 2.16666 8.74996 3.41666 8.74996H16.5833C17.8333 8.74996 18.3333 8.21663 18.3333 6.89163V3.52496C18.3333 2.19996 17.8333 1.66663 16.5833 1.66663Z" stroke="#1C1C1C" strokeWidth="1.5" strokeLinecap="round" strokeLinejoin="round"/>
</svg>
