<svg width="24" height="25" viewBox="0 0 24 25" fill="none" xmlns="http://www.w3.org/2000/svg">
<path d="M6.49996 11.5V12.6M10.389 13.1109L9.61123 13.8887M12 17H10.9M10.3891 20.8891L9.61125 20.1113M6.49996 21.4V22.5M3.38869 20.1113L2.61087 20.8891M2.1 17H1M3.38867 13.8888L2.61085 13.111M8.69996 17C8.69996 18.215 7.71498 19.2 6.49996 19.2C5.28493 19.2 4.29996 18.215 4.29996 17C4.29996 15.785 5.28493 14.8 6.49996 14.8C7.71498 14.8 8.69996 15.785 8.69996 17Z" stroke="#222222" stroke-linecap="round"/>
<path d="M22.0002 11.4692V13.5292C22.0002 14.0792 21.5602 14.5292 21.0002 14.5492H19.0402C17.9602 14.5492 16.9702 13.7592 16.8802 12.6792C16.8202 12.0492 17.0602 11.4592 17.4802 11.0492C17.8502 10.6692 18.3602 10.4492 18.9202 10.4492H21.0002C21.5602 10.4692 22.0002 10.9192 22.0002 11.4692Z" stroke="#222222" stroke-width="1.5" stroke-linecap="round" stroke-linejoin="round"/>
<path d="M2 11V9C2 6.28 3.64 4.38 6.19 4.06C6.45 4.02 6.72 4 7 4H16C16.26 4 16.51 4.00999 16.75 4.04999C19.33 4.34999 21 6.26 21 9V10.45H18.92C18.36 10.45 17.85 10.67 17.48 11.05C17.06 11.46 16.82 12.05 16.88 12.68C16.97 13.76 17.96 14.55 19.04 14.55H21V16C21 19 19 21 16 21H13.5" stroke="#222222" stroke-width="1.5" stroke-linecap="round" stroke-linejoin="round"/>
</svg>
