<svg width="24" height="25" viewBox="0 0 24 25" fill="none" xmlns="http://www.w3.org/2000/svg">
<path d="M10.3618 20.104C10.4792 19.9148 10.3189 19.6838 10.0963 19.6882C10.0624 19.6889 10.0285 19.6892 9.99448 19.6892C7.20025 19.6892 4.93509 17.4241 4.93509 14.6298C4.93509 14.0198 5.04304 13.435 5.24089 12.8935C5.31731 12.6843 5.15113 12.4575 4.93396 12.5068C2.68142 13.0185 1 15.0332 1 17.4406C1 20.2348 3.26517 22.5 6.0594 22.5C7.87634 22.5 9.46959 21.5422 10.3618 20.104Z" stroke="#222222"/>
<path d="M22.0002 11.4692V13.5292C22.0002 14.0792 21.5602 14.5292 21.0002 14.5492H19.0402C17.9602 14.5492 16.9702 13.7592 16.8802 12.6792C16.8202 12.0492 17.0602 11.4592 17.4802 11.0492C17.8502 10.6692 18.3602 10.4492 18.9202 10.4492H21.0002C21.5602 10.4692 22.0002 10.9192 22.0002 11.4692Z" stroke="#222222" strokeWidth="1.5" strokeLinecap="round" strokeLinejoin="round"/>
<path d="M2 11V9C2 6.28 3.64 4.38 6.19 4.06C6.45 4.02 6.72 4 7 4H16C16.26 4 16.51 4.00999 16.75 4.04999C19.33 4.34999 21 6.26 21 9V10.45H18.92C18.36 10.45 17.85 10.67 17.48 11.05C17.06 11.46 16.82 12.05 16.88 12.68C16.97 13.76 17.96 14.55 19.04 14.55H21V16C21 19 19 21 16 21H13.5" stroke="#222222" strokeWidth="1.5" strokeLinecap="round" strokeLinejoin="round"/>
</svg>
